ffmpeg started on 2026-03-22 at 17:01:35
Report written to "D:\Convert\FFMetrics\reports\psnr_report-6.txt"
Log level: 32
Command line:
ffmpeg -hide_banner -nostdin -r 24000/1001 -i "F:\\Convert\\files\\[DC] Make Heroine ga Oosugiru - 07_Telegram_HEVC(229).mkv" -r 24000/1001 -i "F:\\Convert\\files\\[DC] Make Heroine ga Oosugiru - 07_Telegram.mp4" -lavfi "[0:v]settb=AVTB,setpts=PTS-STARTPTS,format=pix_fmts=yuv420p10le,fps=24000/1001,scale=1920:1080:flags=lanczos:param0=3:out_range=limited:out_color_matrix=bt709:out_chroma_loc=left,setsar=1/1,setdar=(1920/1080)*(1/1),colorspace=format=yuv420p10:range=tv:primaries=bt709:trc=bt709:space=bt709:fast=0[main];[1:v]settb=AVTB,setpts=PTS-STARTPTS,format=pix_fmts=yuv420p,fps=24000/1001,scale=1920:1080:flags=lanczos:param0=3:out_range=limited:out_color_matrix=bt709:out_chroma_loc=left,setsar=1.000,setdar=1.778,colorspace=format=yuv420p:range=tv:primaries=bt709:trc=bt709:space=bt709:fast=0[ref];[main][ref]psnr=eof_action=endall:stats_file='D\\:/Convert/FFMetrics/logs/psnr_logfile-6.txt'" -f null -
Input #0, matroska,webm, from 'F:\Convert\files\[DC] Make Heroine ga Oosugiru - 07_Telegram_HEVC(229).mkv':
  Metadata:
    COMPATIBLE_BRANDS: isomiso2avc1mp41
    MAJOR_BRAND     : isom
    MINOR_VERSION   : 512
    ENCODER         : Lavf61.7.100
  Duration: 00:24:06.79, start: -0.021000, bitrate: 986 kb/s
  Stream #0:0: Video: hevc (Main 10), yuv420p10le(tv, bt709, progressive), 1920x1080 [SAR 1:1 DAR 16:9], 23.98 fps, 23.98 tbr, 1k tbn (default)
      Metadata:
        HANDLER_NAME    : VideoHandler
        VENDOR_ID       : [0][0][0][0]
        ENCODER         : Lavc61.19.100 libx265
        BPS             : 788902
        DURATION        : 00:24:06.569708333
        NUMBER_OF_FRAMES: 34683
        NUMBER_OF_BYTES : 142650196
        _STATISTICS_WRITING_APP: mkvpropedit v94.0 ('Initiate') 64-bit
        _STATISTICS_WRITING_DATE_UTC: 2026-03-21 12:57:06
        _STATISTICS_TAGS: BPS DURATION NUMBER_OF_FRAMES NUMBER_OF_BYTES
  Stream #0:1: Audio: aac (LC), 48000 Hz, stereo, fltp (default)
      Metadata:
        HANDLER_NAME    : SoundHandler
        VENDOR_ID       : [0][0][0][0]
        ENCODER         : Lavc61.19.100 aac
        BPS             : 193194
        DURATION        : 00:24:06.784000000
        NUMBER_OF_FRAMES: 67819
        NUMBER_OF_BYTES : 34938755
        _STATISTICS_WRITING_APP: mkvpropedit v94.0 ('Initiate') 64-bit
        _STATISTICS_WRITING_DATE_UTC: 2026-03-21 12:57:06
        _STATISTICS_TAGS: BPS DURATION NUMBER_OF_FRAMES NUMBER_OF_BYTES
Input #1, mov,mp4,m4a,3gp,3g2,mj2, from 'F:\Convert\files\[DC] Make Heroine ga Oosugiru - 07_Telegram.mp4':
  Metadata:
    major_brand     : isom
    minor_version   : 512
    compatible_brands: isomiso2avc1mp41
    encoder         : Lavf60.16.100
  Duration: 00:24:06.74, start: 0.000000, bitrate: 3764 kb/s
  Stream #1:0[0x1](und): Video: h264 (High) (avc1 / 0x31637661), yuv420p(tv, bt709, progressive), 1920x1080 [SAR 1:1 DAR 16:9], 3616 kb/s, 23.98 fps, 23.98 tbr, 24k tbn (default)
      Metadata:
        handler_name    : VideoHandler
        vendor_id       : [0][0][0][0]
        encoder         : Lavc60.31.102 h264_qsv
  Stream #1:1[0x2](und): Audio: aac (HE-AACv2) (mp4a / 0x6134706D), 48000 Hz, stereo, fltp, 144 kb/s (default)
      Metadata:
        handler_name    : SoundHandler
        vendor_id       : [0][0][0][0]
Stream mapping:
  Stream #0:0 (hevc) -> settb:default
  Stream #1:0 (h264) -> settb:default
  psnr:default -> Stream #0:0 (wrapped_avframe)
  Stream #0:1 -> #0:1 (aac (native) -> pcm_s16le (native))
Output #0, null, to 'pipe:':
  Metadata:
    COMPATIBLE_BRANDS: isomiso2avc1mp41
    MAJOR_BRAND     : isom
    MINOR_VERSION   : 512
    encoder         : Lavf61.7.100
  Stream #0:0: Video: wrapped_avframe, yuv420p10le(tv, bt709, progressive), 1920x1080 [SAR 1:1 DAR 16:9], q=2-31, 200 kb/s, 23.98 fps, 23.98 tbn
      Metadata:
        encoder         : Lavc61.19.100 wrapped_avframe
  Stream #0:1: Audio: pcm_s16le, 48000 Hz, stereo, s16, 1536 kb/s (default)
      Metadata:
        HANDLER_NAME    : SoundHandler
        VENDOR_ID       : [0][0][0][0]
        _STATISTICS_TAGS: BPS DURATION NUMBER_OF_FRAMES NUMBER_OF_BYTES
        BPS             : 193194
        DURATION        : 00:24:06.784000000
        NUMBER_OF_FRAMES: 67819
        NUMBER_OF_BYTES : 34938755
        _STATISTICS_WRITING_APP: mkvpropedit v94.0 ('Initiate') 64-bit
        _STATISTICS_WRITING_DATE_UTC: 2026-03-21 12:57:06
        encoder         : Lavc61.19.100 pcm_s16le
frame=  127 fps=0.0 q=-0.0 size=N/A time=00:00:05.29 bitrate=N/A speed=10.4x    frame=  317 fps=305 q=-0.0 size=N/A time=00:00:13.22 bitrate=N/A speed=12.7x    frame=  511 fps=330 q=-0.0 size=N/A time=00:00:21.31 bitrate=N/A speed=13.7x    frame=  700 fps=339 q=-0.0 size=N/A time=00:00:29.19 bitrate=N/A speed=14.2x    frame=  880 fps=342 q=-0.0 size=N/A time=00:00:36.70 bitrate=N/A speed=14.3x    frame= 1014 fps=327 q=-0.0 size=N/A time=00:00:42.29 bitrate=N/A speed=13.6x    frame= 1164 fps=322 q=-0.0 size=N/A time=00:00:48.54 bitrate=N/A speed=13.4x    frame= 1329 fps=322 q=-0.0 size=N/A time=00:00:55.43 bitrate=N/A speed=13.4x    frame= 1484 fps=320 q=-0.0 size=N/A time=00:01:01.89 bitrate=N/A speed=13.4x    frame= 1622 fps=314 q=-0.0 size=N/A time=00:01:07.65 bitrate=N/A speed=13.1x    frame= 1779 fps=313 q=-0.0 size=N/A time=00:01:14.19 bitrate=N/A speed=13.1x    frame= 1934 fps=313 q=-0.0 size=N/A time=00:01:20.66 bitrate=N/A speed=  13x    frame= 2072 fps=309 q=-0.0 size=N/A time=00:01:26.41 bitrate=N/A speed=12.9x    frame= 2212 fps=306 q=-0.0 size=N/A time=00:01:32.25 bitrate=N/A speed=12.8x    frame= 2362 fps=305 q=-0.0 size=N/A time=00:01:38.51 bitrate=N/A speed=12.7x    frame= 2486 fps=301 q=-0.0 size=N/A time=00:01:43.68 bitrate=N/A speed=12.6x    frame= 2641 fps=301 q=-0.0 size=N/A time=00:01:50.15 bitrate=N/A speed=12.6x    frame= 2823 fps=304 q=-0.0 size=N/A time=00:01:57.74 bitrate=N/A speed=12.7x    frame= 2990 fps=305 q=-0.0 size=N/A time=00:02:04.70 bitrate=N/A speed=12.7x    frame= 3183 fps=309 q=-0.0 size=N/A time=00:02:12.75 bitrate=N/A speed=12.9x    frame= 3375 fps=312 q=-0.0 size=N/A time=00:02:20.76 bitrate=N/A speed=  13x    frame= 3573 fps=315 q=-0.0 size=N/A time=00:02:29.02 bitrate=N/A speed=13.1x    frame= 3762 fps=317 q=-0.0 size=N/A time=00:02:36.90 bitrate=N/A speed=13.2x    frame= 3958 fps=320 q=-0.0 size=N/A time=00:02:45.08 bitrate=N/A speed=13.3x    frame= 4144 fps=322 q=-0.0 size=N/A time=00:02:52.83 bitrate=N/A speed=13.4x    frame= 4344 fps=324 q=-0.0 size=N/A time=00:03:01.18 bitrate=N/A speed=13.5x    frame= 4541 fps=326 q=-0.0 size=N/A time=00:03:09.39 bitrate=N/A speed=13.6x    frame= 4739 fps=328 q=-0.0 size=N/A time=00:03:17.65 bitrate=N/A speed=13.7x    frame= 4936 fps=330 q=-0.0 size=N/A time=00:03:25.87 bitrate=N/A speed=13.8x    frame= 5133 fps=332 q=-0.0 size=N/A time=00:03:34.08 bitrate=N/A speed=13.8x    frame= 5307 fps=332 q=-0.0 size=N/A time=00:03:41.34 bitrate=N/A speed=13.8x    frame= 5482 fps=332 q=-0.0 size=N/A time=00:03:48.64 bitrate=N/A speed=13.9x    frame= 5672 fps=333 q=-0.0 size=N/A time=00:03:56.56 bitrate=N/A speed=13.9x    frame= 5862 fps=334 q=-0.0 size=N/A time=00:04:04.49 bitrate=N/A speed=13.9x    frame= 6047 fps=335 q=-0.0 size=N/A time=00:04:12.21 bitrate=N/A speed=  14x    frame= 6244 fps=336 q=-0.0 size=N/A time=00:04:20.42 bitrate=N/A speed=  14x    frame= 6419 fps=337 q=-0.0 size=N/A time=00:04:27.72 bitrate=N/A speed=  14x    frame= 6622 fps=338 q=-0.0 size=N/A time=00:04:36.19 bitrate=N/A speed=14.1x    frame= 6813 fps=339 q=-0.0 size=N/A time=00:04:44.15 bitrate=N/A speed=14.1x    frame= 7003 fps=340 q=-0.0 size=N/A time=00:04:52.08 bitrate=N/A speed=14.2x    frame= 7194 fps=340 q=-0.0 size=N/A time=00:05:00.04 bitrate=N/A speed=14.2x    frame= 7385 fps=341 q=-0.0 size=N/A time=00:05:08.01 bitrate=N/A speed=14.2x    frame= 7572 fps=341 q=-0.0 size=N/A time=00:05:15.81 bitrate=N/A speed=14.2x    frame= 7758 fps=342 q=-0.0 size=N/A time=00:05:23.57 bitrate=N/A speed=14.3x    frame= 7950 fps=343 q=-0.0 size=N/A time=00:05:31.58 bitrate=N/A speed=14.3x    frame= 8143 fps=343 q=-0.0 size=N/A time=00:05:39.63 bitrate=N/A speed=14.3x    frame= 8328 fps=344 q=-0.0 size=N/A time=00:05:47.34 bitrate=N/A speed=14.3x    frame= 8521 fps=344 q=-0.0 size=N/A time=00:05:55.39 bitrate=N/A speed=14.4x    frame= 8710 fps=345 q=-0.0 size=N/A time=00:06:03.27 bitrate=N/A speed=14.4x    frame= 8895 fps=345 q=-0.0 size=N/A time=00:06:10.99 bitrate=N/A speed=14.4x    frame= 9089 fps=346 q=-0.0 size=N/A time=00:06:19.08 bitrate=N/A speed=14.4x    frame= 9267 fps=346 q=-0.0 size=N/A time=00:06:26.51 bitrate=N/A speed=14.4x    frame= 9462 fps=346 q=-0.0 size=N/A time=00:06:34.64 bitrate=N/A speed=14.4x    frame= 9647 fps=346 q=-0.0 size=N/A time=00:06:42.36 bitrate=N/A speed=14.4x    frame= 9837 fps=347 q=-0.0 size=N/A time=00:06:50.28 bitrate=N/A speed=14.5x    frame=10022 fps=347 q=-0.0 size=N/A time=00:06:58.00 bitrate=N/A speed=14.5x    frame=10203 fps=347 q=-0.0 size=N/A time=00:07:05.55 bitrate=N/A speed=14.5x    frame=10399 fps=348 q=-0.0 size=N/A time=00:07:13.72 bitrate=N/A speed=14.5x    frame=10588 fps=348 q=-0.0 size=N/A time=00:07:21.60 bitrate=N/A speed=14.5x    frame=10782 fps=349 q=-0.0 size=N/A time=00:07:29.69 bitrate=N/A speed=14.5x    frame=10977 fps=349 q=-0.0 size=N/A time=00:07:37.83 bitrate=N/A speed=14.6x    frame=11165 fps=349 q=-0.0 size=N/A time=00:07:45.67 bitrate=N/A speed=14.6x    frame=11332 fps=349 q=-0.0 size=N/A time=00:07:52.63 bitrate=N/A speed=14.5x    frame=11501 fps=349 q=-0.0 size=N/A time=00:07:59.68 bitrate=N/A speed=14.5x    frame=11691 fps=349 q=-0.0 size=N/A time=00:08:07.61 bitrate=N/A speed=14.6x    frame=11879 fps=349 q=-0.0 size=N/A time=00:08:15.45 bitrate=N/A speed=14.6x    frame=12074 fps=349 q=-0.0 size=N/A time=00:08:23.58 bitrate=N/A speed=14.6x    frame=12264 fps=350 q=-0.0 size=N/A time=00:08:31.51 bitrate=N/A speed=14.6x    frame=12448 fps=350 q=-0.0 size=N/A time=00:08:39.18 bitrate=N/A speed=14.6x    frame=12636 fps=350 q=-0.0 size=N/A time=00:08:47.02 bitrate=N/A speed=14.6x    frame=12831 fps=350 q=-0.0 size=N/A time=00:08:55.15 bitrate=N/A speed=14.6x    frame=13017 fps=351 q=-0.0 size=N/A time=00:09:02.91 bitrate=N/A speed=14.6x    frame=13205 fps=351 q=-0.0 size=N/A time=00:09:10.75 bitrate=N/A speed=14.6x    frame=13391 fps=351 q=-0.0 size=N/A time=00:09:18.51 bitrate=N/A speed=14.6x    frame=13570 fps=351 q=-0.0 size=N/A time=00:09:25.98 bitrate=N/A speed=14.6x    frame=13765 fps=351 q=-0.0 size=N/A time=00:09:34.11 bitrate=N/A speed=14.6x    frame=13948 fps=351 q=-0.0 size=N/A time=00:09:41.74 bitrate=N/A speed=14.7x    frame=14128 fps=351 q=-0.0 size=N/A time=00:09:49.25 bitrate=N/A speed=14.7x    frame=14316 fps=351 q=-0.0 size=N/A time=00:09:57.09 bitrate=N/A speed=14.7x    frame=14510 fps=352 q=-0.0 size=N/A time=00:10:05.18 bitrate=N/A speed=14.7x    frame=14692 fps=352 q=-0.0 size=N/A time=00:10:12.77 bitrate=N/A speed=14.7x    frame=14879 fps=352 q=-0.0 size=N/A time=00:10:20.57 bitrate=N/A speed=14.7x    frame=15068 fps=352 q=-0.0 size=N/A time=00:10:28.46 bitrate=N/A speed=14.7x    frame=15228 fps=352 q=-0.0 size=N/A time=00:10:35.13 bitrate=N/A speed=14.7x    frame=15418 fps=352 q=-0.0 size=N/A time=00:10:43.05 bitrate=N/A speed=14.7x    frame=15610 fps=352 q=-0.0 size=N/A time=00:10:51.06 bitrate=N/A speed=14.7x    frame=15802 fps=352 q=-0.0 size=N/A time=00:10:59.07 bitrate=N/A speed=14.7x    frame=15995 fps=353 q=-0.0 size=N/A time=00:11:07.12 bitrate=N/A speed=14.7x    frame=16187 fps=353 q=-0.0 size=N/A time=00:11:15.13 bitrate=N/A speed=14.7x    frame=16374 fps=353 q=-0.0 size=N/A time=00:11:22.93 bitrate=N/A speed=14.7x    frame=16565 fps=353 q=-0.0 size=N/A time=00:11:30.89 bitrate=N/A speed=14.7x    frame=16757 fps=353 q=-0.0 size=N/A time=00:11:38.90 bitrate=N/A speed=14.7x    frame=16945 fps=353 q=-0.0 size=N/A time=00:11:46.74 bitrate=N/A speed=14.7x    frame=17135 fps=354 q=-0.0 size=N/A time=00:11:54.67 bitrate=N/A speed=14.7x    frame=17323 fps=354 q=-0.0 size=N/A time=00:12:02.51 bitrate=N/A speed=14.8x    frame=17516 fps=354 q=-0.0 size=N/A time=00:12:10.56 bitrate=N/A speed=14.8x    frame=17687 fps=354 q=-0.0 size=N/A time=00:12:17.69 bitrate=N/A speed=14.7x    frame=17868 fps=354 q=-0.0 size=N/A time=00:12:25.24 bitrate=N/A speed=14.7x    frame=18053 fps=354 q=-0.0 size=N/A time=00:12:32.96 bitrate=N/A speed=14.7x    frame=18223 fps=353 q=-0.0 size=N/A time=00:12:40.05 bitrate=N/A speed=14.7x    frame=18401 fps=353 q=-0.0 size=N/A time=00:12:47.47 bitrate=N/A speed=14.7x    frame=18598 fps=354 q=-0.0 size=N/A time=00:12:55.69 bitrate=N/A speed=14.7x    frame=18786 fps=354 q=-0.0 size=N/A time=00:13:03.53 bitrate=N/A speed=14.8x    frame=18978 fps=354 q=-0.0 size=N/A time=00:13:11.54 bitrate=N/A speed=14.8x    frame=19179 fps=354 q=-0.0 size=N/A time=00:13:19.92 bitrate=N/A speed=14.8x    frame=19379 fps=355 q=-0.0 size=N/A time=00:13:28.26 bitrate=N/A speed=14.8x    frame=19566 fps=355 q=-0.0 size=N/A time=00:13:36.06 bitrate=N/A speed=14.8x    frame=19756 fps=355 q=-0.0 size=N/A time=00:13:43.98 bitrate=N/A speed=14.8x    frame=19944 fps=355 q=-0.0 size=N/A time=00:13:51.83 bitrate=N/A speed=14.8x    frame=20142 fps=355 q=-0.0 size=N/A time=00:14:00.08 bitrate=N/A speed=14.8x    frame=20340 fps=355 q=-0.0 size=N/A time=00:14:08.34 bitrate=N/A speed=14.8x    frame=20515 fps=355 q=-0.0 size=N/A time=00:14:15.64 bitrate=N/A speed=14.8x    frame=20703 fps=355 q=-0.0 size=N/A time=00:14:23.48 bitrate=N/A speed=14.8x    frame=20899 fps=356 q=-0.0 size=N/A time=00:14:31.66 bitrate=N/A speed=14.8x    frame=21089 fps=356 q=-0.0 size=N/A time=00:14:39.58 bitrate=N/A speed=14.8x    frame=21273 fps=356 q=-0.0 size=N/A time=00:14:47.26 bitrate=N/A speed=14.8x    frame=21477 fps=356 q=-0.0 size=N/A time=00:14:55.76 bitrate=N/A speed=14.8x    frame=21676 fps=356 q=-0.0 size=N/A time=00:15:04.06 bitrate=N/A speed=14.9x    frame=21868 fps=356 q=-0.0 size=N/A time=00:15:12.07 bitrate=N/A speed=14.9x    frame=22076 fps=357 q=-0.0 size=N/A time=00:15:20.75 bitrate=N/A speed=14.9x    frame=22267 fps=357 q=-0.0 size=N/A time=00:15:28.71 bitrate=N/A speed=14.9x    frame=22463 fps=357 q=-0.0 size=N/A time=00:15:36.89 bitrate=N/A speed=14.9x    frame=22652 fps=357 q=-0.0 size=N/A time=00:15:44.77 bitrate=N/A speed=14.9x    frame=22846 fps=357 q=-0.0 size=N/A time=00:15:52.86 bitrate=N/A speed=14.9x    frame=23026 fps=357 q=-0.0 size=N/A time=00:16:00.37 bitrate=N/A speed=14.9x    frame=23208 fps=357 q=-0.0 size=N/A time=00:16:07.96 bitrate=N/A speed=14.9x    frame=23391 fps=357 q=-0.0 size=N/A time=00:16:15.59 bitrate=N/A speed=14.9x    frame=23586 fps=357 q=-0.0 size=N/A time=00:16:23.73 bitrate=N/A speed=14.9x    frame=23781 fps=358 q=-0.0 size=N/A time=00:16:31.86 bitrate=N/A speed=14.9x    frame=23966 fps=358 q=-0.0 size=N/A time=00:16:39.58 bitrate=N/A speed=14.9x    frame=24156 fps=358 q=-0.0 size=N/A time=00:16:47.50 bitrate=N/A speed=14.9x    frame=24347 fps=358 q=-0.0 size=N/A time=00:16:55.47 bitrate=N/A speed=14.9x    frame=24531 fps=358 q=-0.0 size=N/A time=00:17:03.14 bitrate=N/A speed=14.9x    frame=24720 fps=358 q=-0.0 size=N/A time=00:17:11.03 bitrate=N/A speed=14.9x    frame=24917 fps=358 q=-0.0 size=N/A time=00:17:19.24 bitrate=N/A speed=14.9x    frame=25105 fps=358 q=-0.0 size=N/A time=00:17:27.08 bitrate=N/A speed=14.9x    frame=25299 fps=358 q=-0.0 size=N/A time=00:17:35.17 bitrate=N/A speed=14.9x    frame=25486 fps=358 q=-0.0 size=N/A time=00:17:42.97 bitrate=N/A speed=14.9x    frame=25684 fps=358 q=-0.0 size=N/A time=00:17:51.23 bitrate=N/A speed=14.9x    frame=25873 fps=358 q=-0.0 size=N/A time=00:17:59.11 bitrate=N/A speed=14.9x    frame=26070 fps=359 q=-0.0 size=N/A time=00:18:07.33 bitrate=N/A speed=  15x    frame=26255 fps=359 q=-0.0 size=N/A time=00:18:15.05 bitrate=N/A speed=  15x    frame=26449 fps=359 q=-0.0 size=N/A time=00:18:23.14 bitrate=N/A speed=  15x    frame=26631 fps=359 q=-0.0 size=N/A time=00:18:30.73 bitrate=N/A speed=  15x    frame=26821 fps=359 q=-0.0 size=N/A time=00:18:38.65 bitrate=N/A speed=  15x    frame=26994 fps=359 q=-0.0 size=N/A time=00:18:45.87 bitrate=N/A speed=  15x    frame=27170 fps=358 q=-0.0 size=N/A time=00:18:53.21 bitrate=N/A speed=  15x    frame=27353 fps=358 q=-0.0 size=N/A time=00:19:00.84 bitrate=N/A speed=14.9x    frame=27542 fps=359 q=-0.0 size=N/A time=00:19:08.73 bitrate=N/A speed=  15x    frame=27730 fps=358 q=-0.0 size=N/A time=00:19:16.57 bitrate=N/A speed=  15x    frame=27909 fps=358 q=-0.0 size=N/A time=00:19:24.03 bitrate=N/A speed=14.9x    frame=28098 fps=359 q=-0.0 size=N/A time=00:19:31.92 bitrate=N/A speed=  15x    frame=28290 fps=359 q=-0.0 size=N/A time=00:19:39.92 bitrate=N/A speed=  15x    frame=28484 fps=359 q=-0.0 size=N/A time=00:19:48.02 bitrate=N/A speed=  15x    frame=28668 fps=359 q=-0.0 size=N/A time=00:19:55.69 bitrate=N/A speed=  15x    frame=28828 fps=358 q=-0.0 size=N/A time=00:20:02.36 bitrate=N/A speed=14.9x    frame=28994 fps=358 q=-0.0 size=N/A time=00:20:09.29 bitrate=N/A speed=14.9x    frame=29171 fps=358 q=-0.0 size=N/A time=00:20:16.67 bitrate=N/A speed=14.9x    frame=29350 fps=358 q=-0.0 size=N/A time=00:20:24.13 bitrate=N/A speed=14.9x    frame=29515 fps=358 q=-0.0 size=N/A time=00:20:31.02 bitrate=N/A speed=14.9x    frame=29699 fps=358 q=-0.0 size=N/A time=00:20:38.69 bitrate=N/A speed=14.9x    frame=29870 fps=358 q=-0.0 size=N/A time=00:20:45.82 bitrate=N/A speed=14.9x    frame=30031 fps=357 q=-0.0 size=N/A time=00:20:52.54 bitrate=N/A speed=14.9x    frame=30221 fps=357 q=-0.0 size=N/A time=00:21:00.46 bitrate=N/A speed=14.9x    frame=30408 fps=357 q=-0.0 size=N/A time=00:21:08.26 bitrate=N/A speed=14.9x    frame=30583 fps=357 q=-0.0 size=N/A time=00:21:15.56 bitrate=N/A speed=14.9x    frame=30780 fps=357 q=-0.0 size=N/A time=00:21:23.78 bitrate=N/A speed=14.9x    frame=30972 fps=357 q=-0.0 size=N/A time=00:21:31.79 bitrate=N/A speed=14.9x    frame=31163 fps=357 q=-0.0 size=N/A time=00:21:39.75 bitrate=N/A speed=14.9x    frame=31345 fps=357 q=-0.0 size=N/A time=00:21:47.34 bitrate=N/A speed=14.9x    frame=31531 fps=357 q=-0.0 size=N/A time=00:21:55.10 bitrate=N/A speed=14.9x    frame=31721 fps=357 q=-0.0 size=N/A time=00:22:03.03 bitrate=N/A speed=14.9x    frame=31897 fps=357 q=-0.0 size=N/A time=00:22:10.37 bitrate=N/A speed=14.9x    frame=32076 fps=357 q=-0.0 size=N/A time=00:22:17.83 bitrate=N/A speed=14.9x    frame=32271 fps=357 q=-0.0 size=N/A time=00:22:25.96 bitrate=N/A speed=14.9x    frame=32447 fps=357 q=-0.0 size=N/A time=00:22:33.31 bitrate=N/A speed=14.9x    frame=32640 fps=357 q=-0.0 size=N/A time=00:22:41.36 bitrate=N/A speed=14.9x    frame=32783 fps=357 q=-0.0 size=N/A time=00:22:47.32 bitrate=N/A speed=14.9x    frame=32959 fps=357 q=-0.0 size=N/A time=00:22:54.66 bitrate=N/A speed=14.9x    frame=33148 fps=357 q=-0.0 size=N/A time=00:23:02.54 bitrate=N/A speed=14.9x    frame=33331 fps=357 q=-0.0 size=N/A time=00:23:10.18 bitrate=N/A speed=14.9x    frame=33494 fps=357 q=-0.0 size=N/A time=00:23:16.97 bitrate=N/A speed=14.9x    frame=33641 fps=356 q=-0.0 size=N/A time=00:23:23.11 bitrate=N/A speed=14.9x    frame=33776 fps=356 q=-0.0 size=N/A time=00:23:28.74 bitrate=N/A speed=14.8x    frame=33900 fps=355 q=-0.0 size=N/A time=00:23:33.91 bitrate=N/A speed=14.8x    frame=34059 fps=355 q=-0.0 size=N/A time=00:23:40.54 bitrate=N/A speed=14.8x    frame=34217 fps=355 q=-0.0 size=N/A time=00:23:47.13 bitrate=N/A speed=14.8x    frame=34354 fps=354 q=-0.0 size=N/A time=00:23:52.84 bitrate=N/A speed=14.8x    frame=34486 fps=354 q=-0.0 size=N/A time=00:23:58.35 bitrate=N/A speed=14.8x    frame=34672 fps=354 q=-0.0 size=N/A time=00:24:06.11 bitrate=N/A speed=14.8x    [Parsed_psnr_16 @ 000001faf83d4740] PSNR y:48.960233 u:50.330926 v:50.381442 average:49.377583 min:38.015838 max:inf
[out#0/null @ 000001faeb2be740] video:14903KiB audio:271276KiB subtitle:0KiB other streams:0KiB global headers:0KiB muxing overhead: unknown
frame=34683 fps=354 q=-0.0 Lsize=N/A time=00:24:06.57 bitrate=N/A speed=14.8x    
